<?xml version="1.0" standalone="no"?><!DOCTYPE svg PUBLIC "-//W3C//DTD SVG 1.1//EN" "http://www.w3.org/Graphics/SVG/1.1/DTD/svg11.dtd"><svg t="1722299814496" class="icon" viewBox="0 0 1024 1024" version="1.1" xmlns="http://www.w3.org/2000/svg" p-id="28833" xmlns:xlink="http://www.w3.org/1999/xlink" width="256" height="256"><path d="M160 159m36 0l682 0q36 0 36 36l0 0q0 36-36 36l-682 0q-36 0-36-36l0 0q0-36 36-36Z" fill="#8a8a8a" p-id="28834"></path><path d="M329 476m36 0l344 0q36 0 36 36l0 0q0 36-36 36l-344 0q-36 0-36-36l0 0q0-36 36-36Z" fill="#8a8a8a" p-id="28835"></path><path d="M233 793m36 0l536 0q36 0 36 36l0 0q0 36-36 36l-536 0q-36 0-36-36l0 0q0-36 36-36Z" fill="#8a8a8a" p-id="28836"></path></svg>